<?xml version="1.0" standalone="no"?>
<!DOCTYPE svg PUBLIC "-//W3C//DTD SVG 20010904//EN"
 "http://www.w3.org/TR/2001/REC-SVG-20010904/DTD/svg10.dtd">
<svg version="1.0" xmlns="http://www.w3.org/2000/svg"
 width="700.000000pt" height="700.000000pt" viewBox="0 0 700.000000 700.000000"
 preserveAspectRatio="xMidYMid meet">
<metadata>
Created by potrace 1.14, written by Peter Selinger 2001-2017
</metadata>
<g transform="translate(0.000000,700.000000) scale(0.100000,-0.100000)"
fill="#000000" stroke="none">
<path d="M650 6745 c-91 -18 -160 -43 -196 -70 -18 -14 -48 -58 -73 -109 -67
-135 -66 -211 6 -293 25 -28 96 -83 108 -83 3 0 35 -19 72 -42 38 -22 82 -49
98 -58 17 -10 108 -63 203 -119 95 -55 177 -101 183 -101 5 0 9 -4 9 -10 0 -5
4 -10 8 -10 10 0 302 -167 316 -181 6 -5 17 -9 25 -9 8 0 22 -6 30 -13 25 -21
284 -141 421 -195 113 -45 258 -98 545 -199 206 -73 233 -82 345 -123 211 -78
240 -104 433 -391 199 -298 260 -429 274 -583 11 -140 -42 -207 -166 -209 -52
0 -186 9 -255 18 -17 2 -58 6 -91 10 -88 8 -145 14 -190 20 -22 3 -78 7 -125
11 -47 3 -96 7 -110 10 -127 21 -798 21 -916 0 -11 -2 -48 -7 -84 -10 -551
-58 -847 -158 -1052 -354 -167 -160 -260 -404 -253 -662 4 -125 6 -139 36
-250 65 -239 259 -555 476 -775 159 -161 291 -266 555 -438 539 -353 1103
-630 1688 -827 85 -29 162 -55 170 -58 112 -41 560 -156 800 -206 14 -3 34 -7
45 -9 11 -3 42 -8 69 -11 27 -4 53 -9 56 -11 4 -3 25 -7 46 -10 22 -3 48 -7
59 -9 124 -21 342 -59 359 -62 12 -2 64 -11 116 -20 52 -9 104 -18 115 -20 22
-4 112 -13 185 -17 45 -3 200 7 262 17 153 24 331 81 506 160 204 93 232 106
477 226 256 124 278 140 318 230 48 107 62 218 62 470 -1 153 -6 227 -21 285
-9 36 -103 221 -204 400 -96 169 -113 204 -106 221 3 8 13 14 23 15 10 0 61 1
113 2 82 2 103 6 152 30 79 39 132 91 164 161 80 176 -20 376 -215 432 -14 3
-77 8 -140 9 -132 3 -191 19 -285 79 -72 46 -205 112 -323 161 -51 20 -100 46
-110 57 -10 11 -72 102 -138 202 -132 199 -164 231 -226 223 -20 -3 -54 -17
-76 -32 -54 -35 -119 -54 -176 -50 -26 2 -102 21 -169 43 -131 42 -249 68
-363 77 -97 9 -122 14 -161 30 -69 28 -117 101 -144 215 -18 76 -59 221 -69
245 -5 11 -21 49 -36 85 -15 36 -66 139 -113 230 -47 91 -92 178 -100 194 -25
49 -24 81 5 110 30 30 47 31 146 11 40 -8 83 -16 97 -19 51 -10 136 -26 155
-30 11 -3 103 -21 205 -41 102 -20 192 -38 200 -40 8 -2 50 -10 93 -19 75 -16
399 -79 462 -90 17 -3 41 -8 55 -10 14 -3 43 -8 65 -11 22 -3 67 -10 100 -15
33 -5 83 -12 110 -15 28 -3 64 -8 80 -10 17 -3 64 -7 105 -10 41 -4 91 -8 110
-10 19 -3 98 -7 175 -10 283 -11 349 -16 453 -36 159 -31 378 0 424 61 25 34
29 60 29 169 0 101 -10 139 -50 180 -77 78 -548 462 -676 550 -28 19 -52 38
-55 41 -8 9 -113 76 -145 92 -32 16 -84 16 -126 0 -14 -6 -56 -35 -95 -66 -38
-31 -84 -63 -103 -72 -35 -17 -113 -22 -166 -11 -45 10 -136 26 -170 31 -220
29 -329 40 -530 52 -55 3 -116 7 -135 9 -19 2 -75 6 -125 10 -49 3 -115 8
-145 10 -30 3 -83 7 -117 10 -35 3 -89 7 -120 10 -32 3 -87 7 -123 10 -36 3
-85 7 -110 9 -25 3 -79 8 -120 11 -41 3 -86 8 -100 10 -39 6 -296 43 -353 50
-144 19 -189 25 -235 30 -157 19 -242 62 -398 202 -354 317 -692 523 -1163
708 -128 51 -461 160 -563 186 -104 26 -296 33 -388 14z m2600 -3474 c234 -49
226 -44 284 -135 58 -89 126 -143 222 -176 101 -35 303 -90 341 -94 66 -6 107
29 169 144 16 30 45 71 65 92 47 49 73 49 192 -1 126 -53 290 -105 372 -118
17 -3 57 -14 90 -25 233 -80 355 -212 477 -518 17 -41 31 -79 33 -85 1 -5 5
-17 8 -25 12 -29 46 -165 57 -230 12 -67 15 -212 5 -265 -39 -212 -194 -381
-436 -475 -76 -29 -196 -64 -257 -74 -18 -4 -47 -9 -64 -12 -191 -33 -880 -39
-998 -9 -8 2 -42 6 -75 9 -33 3 -69 8 -80 10 -11 2 -42 7 -70 10 -52 7 -427
82 -457 92 -15 4 -32 8 -83 18 -123 24 -498 126 -650 178 -679 230 -1069 521
-1200 893 -26 74 -29 200 -5 264 70 194 262 340 520 396 74 17 263 54 295 59
22 4 54 8 70 11 79 12 246 35 305 41 25 2 61 7 80 9 19 2 64 7 100 10 36 4 83
8 105 10 22 2 81 7 130 11 50 3 92 8 94 10 12 11 271 -7 361 -25z"/>
</g>
</svg>
