<svg version="1.2" xmlns="http://www.w3.org/2000/svg" viewBox="0 0 615 200" width="615" height="200">
	<title>Новый проект</title>
	<style>
		.s0 { fill: #000000 } 
		.s1 { fill: #ff8e09 } 
	</style>
	<g id="Layer">
		<path id="Layer" fill-rule="evenodd" class="s0" d="m165.1 161.1c-29.9 0-55.4-26.5-55.4-61.4l44.9-48.4c38.4-2.4 64.9 25.5 64.9 55.4q0 7-2 14h-77.3c4.9 8.5 13.9 13.9 24.9 13.9h39.9v26.5zm-24.9-67.9h49.3c-4.9-8.9-13.9-14.4-24.4-14.4-11 0-20 5.5-24.9 14.4z"/>
		<path id="Layer" fill-rule="evenodd" class="s0" d="m27.4 62.8c4.5-4 15.5-8.5 26.5-8.5 29.9 0 54.3 24.5 54.3 54.4 0 29.9-24.4 54.4-54.3 54.4-29.5 0-53.9-24.5-53.9-54.4v-78.3h27.4zm54.4 45.9c0-15.5-12.5-27.9-27.9-27.9-15.5 0-28 12.4-28 27.9 0 15.4 12.5 27.9 28 27.9 15.4 0 27.9-12.5 27.9-27.9z"/>
		<path id="Layer" fill-rule="evenodd" class="s0" d="m615 30.4v94.3l-44.9 37.9c-40.4 0-63.3-24-63.3-53.9 0-29.9 24.4-54.4 54.3-54.4 11.5 0 22 4.5 27 8v-31.9zm-26 78.3c0-15.4-12.5-27.9-27.9-27.9-15.4 0-27.9 12.5-27.9 27.9 0 15.5 12.5 27.9 27.9 27.9 15.4 0 27.9-12.4 27.9-27.9z"/>
		<path id="Layer" fill-rule="evenodd" class="s0" d="m261.4 185h-27v-78.3c0-29.9 24-53.9 53.9-53.9 29.9 0 54.4 24 54.4 53.9 0 29.9-24.5 54.4-54.4 54.4-11 0-21.9-4.5-26.9-8.5zm54.8-77.8c0-15.5-12.5-27.9-27.9-27.9-15.4 0-27.9 12.4-27.9 27.9 0 15.4 12.5 27.9 27.9 27.9 15.4 0 27.9-12.5 27.9-27.9z"/>
		<path id="Layer" fill-rule="evenodd" class="s0" d="m426.5 135.1l-27 27c-30.4 0-54.8-24.5-54.8-54.9 0-29.9 24.4-54.9 54.8-54.9 30.5 0 54.9 25 54.9 54.9v53.9h-27.9zm1.5-27.5c0-15.7-12.8-28.4-28.5-28.4-15.7 0-28.4 12.7-28.4 28.4 0 15.8 12.7 28.5 28.4 28.5 15.7 0 28.5-12.7 28.5-28.5z"/>
		<path id="Layer" class="s0" d="m467.4 79.3h26.9v81.8h-26.9z"/>
		<path id="Layer" class="s1" d="m467.4 30.4h26.9v26.9h-26.9z"/>
	</g>
</svg>