<svg version="1.2" xmlns="http://www.w3.org/2000/svg" viewBox="0 0 378 200" width="378" height="200">
	<title>Новый проект</title>
	<style>
		.s0 { fill: #ffffff } 
		.s1 { fill: #3c4043 } 
		.s2 { fill: #4285f4 } 
		.s3 { fill: #34a853 } 
		.s4 { fill: #fabb05 } 
		.s5 { fill: #e94235 } 
	</style>
	<path id="Base_1_" class="s0" d="m276.7 0h-176c-55 0-100 45-100 100 0 55 45 100 100 100h176c55 0 100-45 100-100 0-55-45-100-100-100z"/>
	<path id="Outline" fill-rule="evenodd" class="s1" d="m376.7 100c0 55-45 100-100 100h-176c-55 0-100-45-100-100 0-55 45-100 100-100h176c55 0 100 45 100 100zm-276-91.9c-12.4 0-24.4 2.4-35.7 7.2-10.9 4.7-20.8 11.3-29.2 19.8-8.5 8.5-15.1 18.3-19.8 29.2-4.8 11.3-7.2 23.3-7.2 35.7 0 12.3 2.4 24.3 7.2 35.6 4.7 11 11.3 20.8 19.8 29.3 8.5 8.4 18.3 15.1 29.2 19.7 11.3 4.8 23.3 7.3 35.7 7.3h176c12.3 0 24.3-2.5 35.6-7.3 11-4.6 20.8-11.3 29.3-19.7 8.4-8.5 15.1-18.3 19.7-29.3 4.8-11.3 7.3-23.3 7.3-35.6 0-12.4-2.5-24.4-7.3-35.7-4.6-10.9-11.3-20.8-19.7-29.2-8.5-8.5-18.3-15.1-29.3-19.8-11.3-4.8-23.3-7.2-35.6-7.2z"/>
	<g id="Google_Pay_Lockup_1_">
		<g id="Pay_Typeface_3_">
			<path id="Letter_p_3_" fill-rule="evenodd" class="s1" d="m180 137.3h-9.6v-74.7h25.4q9.7 0 16.5 6.5 6.9 6.4 6.9 15.7c0 6.4-2.3 11.6-6.9 15.9-4.5 4.2-10 6.3-16.5 6.3h-15.8zm0-39.4h16c3.8 0 7-1.3 9.5-3.9 2.6-2.5 3.9-5.6 3.9-9.1 0-3.5-1.3-6.5-3.9-9.1-2.5-2.6-5.6-3.9-9.5-3.9h-16z"/>
			<path id="Letter_a_3_" fill-rule="evenodd" class="s1" d="m244.3 84.5q10.6 0 16.8 5.7 6.1 5.7 6.1 15.6v31.5h-9.1v-7.1h-0.4c-4 5.9-9.3 8.8-15.9 8.8-5.6 0-10.3-1.7-14.1-5q-5.7-5-5.7-12.5 0-8 6-12.6c4-3.2 9.3-4.7 16-4.7q8.6 0 14 3.1v-2.2c0-3.3-1.3-6.1-3.9-8.5q-4-3.5-9.3-3.5c-5.4 0-9.6 2.3-12.7 6.8l-8.5-5.3c4.7-6.7 11.6-10.1 20.7-10.1zm-12.4 37.1c0 2.5 1 4.6 3.2 6.3 2.1 1.6 4.6 2.5 7.4 2.5q6.1 0 10.8-4.5c3.2-3 4.8-6.5 4.8-10.6-3-2.3-7.2-3.5-12.5-3.5q-5.9 0-9.8 2.8-3.9 2.9-3.9 7z"/>
			<path id="Letter_y_3_" class="s1" d="m319.4 86.2l-32 73.6h-9.9l11.9-25.8-21.1-47.8h10.5l15.2 36.7h0.2l14.8-36.7z"/>
		</g>
		<g id="Google_Mark_1_">
			<path id="Blue_500" class="s2" d="m141.8 101q0-4.7-0.8-9h-40.2v16.5h23.1c-0.9 5.5-3.9 10.2-8.6 13.3v10.7h13.8c8.1-7.5 12.7-18.5 12.7-31.5z"/>
			<path id="Green_500_1_" class="s3" d="m115.4 121.8c-3.9 2.6-8.8 4.1-14.6 4.1-11.2 0-20.7-7.5-24.1-17.7h-14.2v11.1c7.1 13.9 21.5 23.5 38.3 23.5 11.6 0 21.3-3.8 28.3-10.3z"/>
			<path id="Yellow_500_1_" class="s4" d="m75.4 100c0-2.8 0.5-5.6 1.3-8.2v-11h-14.2c-2.9 5.8-4.6 12.3-4.6 19.2 0 6.9 1.7 13.5 4.6 19.3l14.2-11.1c-0.8-2.6-1.3-5.3-1.3-8.2z"/>
			<path id="Red_500" class="s5" d="m100.8 74.1c6.3 0 12 2.2 16.4 6.5l12.2-12.2c-7.4-7-17.1-11.2-28.6-11.2-16.8 0-31.2 9.6-38.3 23.6l14.2 11c3.4-10.1 12.9-17.7 24.1-17.7z"/>
		</g>
	</g>
</svg>