<svg width="200" height="100" viewBox="0 0 200 100" fill="none" xmlns="http://www.w3.org/2000/svg">
<path d="M101.12 44.683C102.879 46.815 103.522 49.3186 103.048 52.2282H89.5853C90.2284 54.3594 92.0215 55.7463 94.3557 55.7463C96.3508 55.7463 97.7721 54.9348 98.6853 53.3112L102.44 55.0028C100.85 57.8444 97.8734 59.6709 94.2202 59.6709C91.548 59.6709 89.3487 58.7917 87.5564 57.0662C85.7635 55.3408 84.8842 53.1757 84.8842 50.6041C84.8842 48.0333 85.7633 45.8679 87.5225 44.1425C89.281 42.417 91.4469 41.5378 94.0514 41.5378C96.9931 41.5375 99.3274 42.5857 101.12 44.683ZM89.6528 48.7432H98.4814C97.8383 46.747 96.1817 45.4619 94.0507 45.4619C92.021 45.4619 90.2953 46.7472 89.6528 48.7432Z" fill="#1E4078"/>
<path d="M121.617 44.1417C123.208 45.8679 124.019 48.033 124.019 50.6038C124.019 53.1754 123.208 55.3405 121.617 57.0655C120.028 58.7917 118.032 59.6709 115.631 59.6709C113.398 59.6709 111.537 58.8594 110.083 57.269V66.0992H105.517V41.8755H110.083V43.939C111.537 42.3493 113.398 41.537 115.631 41.537C118.032 41.537 120.028 42.4168 121.617 44.1417ZM114.683 55.5097C116.003 55.5097 117.085 55.0361 117.965 54.0889C118.843 53.1755 119.284 51.9915 119.284 50.6041C119.284 49.2172 118.843 48.0332 117.965 47.1198C117.085 46.2059 116.003 45.7322 114.683 45.7322C113.364 45.7322 112.281 46.2057 111.402 47.1198C110.523 48.0671 110.083 49.2172 110.083 50.6041C110.083 51.9915 110.523 53.1757 111.402 54.0889C112.281 55.0359 113.364 55.5097 114.683 55.5097Z" fill="#1E4078"/>
<path d="M130.885 52.668L139.206 41.8755H143.637V59.3329H139.07V48.5406L130.75 59.3329H126.319V41.8755H130.885V52.668Z" fill="#1E4078"/>
<path d="M151.856 59.3327H147.289V41.8753H164V59.3327H159.433V45.9016H151.856V59.3327Z" fill="#1E4078"/>
<path d="M44.5445 28L55.0665 40.8654L49.7918 47.3069L34 28H44.5445Z" fill="url(#paint0_linear)"/>
<path d="M64.0345 36.332C64.0295 36.3445 60.3337 40.858 60.3337 40.858L49.8167 28H58.9117C59.8306 28 60.6998 28.4135 61.2826 29.1234L64.0195 32.4712C64.9285 33.5796 64.9609 35.1937 64.0345 36.332Z" fill="url(#paint1_linear)"/>
<path d="M77.2112 52.478L62.1441 70.8931C61.5614 71.603 60.6922 72.014 59.7757 72.014H50.6782L73.5254 44.0936L77.2112 48.5996C78.1351 49.728 78.1351 51.3521 77.2112 52.478Z" fill="url(#paint2_linear)"/>
<path d="M69.2967 42.8009L45.3912 72.014H34.8392L60.3337 40.858C60.3337 40.858 64.0295 36.3445 64.0345 36.332C64.9609 35.1937 64.9285 33.5796 64.0195 32.4711L69.2967 38.9226C70.2207 40.0509 70.2207 41.6725 69.2967 42.8009Z" fill="url(#paint3_linear)"/>
<defs>
<linearGradient id="paint0_linear" x1="34.3272" y1="30.3144" x2="63.9704" y2="47.2502" gradientUnits="userSpaceOnUse">
<stop stop-color="#F6B960"/>
<stop offset="1" stop-color="#E7362F"/>
</linearGradient>
<linearGradient id="paint1_linear" x1="46.5101" y1="26.7025" x2="76.1534" y2="43.6383" gradientUnits="userSpaceOnUse">
<stop offset="0.0472" stop-color="#F6B960"/>
<stop offset="0.7614" stop-color="#E7362F"/>
</linearGradient>
<linearGradient id="paint2_linear" x1="54.3338" y1="74.1331" x2="77.0896" y2="45.9986" gradientUnits="userSpaceOnUse">
<stop stop-color="#E7362F"/>
<stop offset="1" stop-color="#F6B960"/>
</linearGradient>
<linearGradient id="paint3_linear" x1="37.3798" y1="74.1858" x2="66.0221" y2="38.4435" gradientUnits="userSpaceOnUse">
<stop stop-color="#E7362F"/>
<stop offset="1" stop-color="#F6B960"/>
</linearGradient>
</defs>
</svg>
