<svg width="170" height="100" viewBox="0 0 170 100" fill="none" xmlns="http://www.w3.org/2000/svg">
<g clip-path="url(#clip0)">
<path d="M71.8265 52.6938H66V69.7062H69.1681V64.8354H71.8018C75.3451 64.8354 77.954 62.131 77.954 58.7505C77.9575 55.3947 75.3451 52.6938 71.8265 52.6938ZM71.5929 61.8974H69.1717V55.6284H71.5965C73.4832 55.6284 74.7646 57.0266 74.7646 58.7505C74.7646 60.4992 73.4832 61.8974 71.5929 61.8974Z" fill="black"/>
<path d="M89.9398 57.7028C88.9593 56.5382 87.3522 55.7913 85.5575 55.7913C82.1062 55.7913 78.8 58.3789 78.8 62.8992C78.8 67.3523 82.2265 69.9859 85.5115 69.9859C87.3062 69.9859 88.938 69.193 89.9398 67.9364V69.7063H93.0867V56.0709H89.9398V57.7028ZM86.0248 67.0975C83.6956 67.0975 81.9009 65.232 81.9009 62.8567C81.9009 60.5028 83.6956 58.6621 86.0248 58.6621C88.354 58.6621 90.1026 60.5488 90.1026 62.8567C90.1026 65.2072 88.354 67.0975 86.0248 67.0975Z" fill="black"/>
<path d="M101.501 65.2531L97.7027 56.0708H94.3469L99.9398 69.0301L97.0726 76H100.266L108.4 56.0708H105.09L101.501 65.2531Z" fill="black"/>
<path d="M121.173 38.9981H121.085L117.428 26.5061H111.52V42.2583H115.435L115.216 29.3344H115.301L119.23 42.2583H124.897V26.5061H120.958L121.173 38.9981Z" fill="black"/>
<path d="M49.5664 27.9822L49.6549 27.9787L51.7788 42.4211H56.0513L53.1204 26.5061H46.0407L43.0885 42.4211H47.3894L49.5664 27.9822Z" fill="black"/>
<path d="M70.0867 26.5061L68.1221 38.676H68.0336L66.0726 26.5061H59.5805L59.2301 42.4211H63.2124L63.3151 28.1132H63.4L66.0584 42.4211H70.0974L72.7558 28.1167L72.8443 28.1132L72.9434 42.4211H76.9257L76.5752 26.5061H70.0867Z" fill="black"/>
<path d="M34.7841 43.0442C37.6619 43.0442 40.0301 42.0637 40.4088 39.4053C40.6035 38.0319 40.4584 37.1327 40.3912 36.7965C39.7186 33.4655 33.6796 32.4708 33.2301 30.6053C33.1558 30.2832 33.1735 29.9469 33.2124 29.7699C33.3257 29.2602 33.669 28.7009 34.6673 28.7009C35.5982 28.7009 36.1469 29.2743 36.1469 30.1416V31.1292H40.1186V30.0071C40.1186 26.5416 37.0035 26 34.7522 26C31.9239 26 29.6088 26.9381 29.1876 29.5327C29.0708 30.2442 29.0566 30.8779 29.223 31.6779C29.9133 34.931 35.5699 35.8726 36.3876 37.9292C36.5434 38.315 36.4938 38.8071 36.4195 39.108C36.2885 39.6389 35.931 40.1805 34.869 40.1805C33.8743 40.1805 33.269 39.6035 33.269 38.7363L33.2655 37.1929H29V38.4212C29 41.9717 31.7929 43.0442 34.7841 43.0442Z" fill="black"/>
<path d="M85.0071 30.6477C84.9292 30.3291 84.9504 29.9999 84.9858 29.8229C85.0991 29.3167 85.4425 28.7645 86.4265 28.7645C87.354 28.7645 87.892 29.3309 87.892 30.191V31.1645H91.8248V30.0565C91.8248 26.6229 88.7416 26.0884 86.5115 26.0884C83.7115 26.0884 81.4212 27.0158 81.0035 29.5857C80.8867 30.2901 80.8726 30.9167 81.0389 31.7096C81.7186 34.9309 87.3221 35.8618 88.1327 37.9008C88.2849 38.2831 88.2389 38.768 88.1646 39.0654C88.0372 39.5893 87.6796 40.1238 86.6283 40.1238C85.6407 40.1238 85.0425 39.5539 85.0425 38.6937L85.0389 37.168H80.8124V38.3822C80.8124 41.8972 83.5805 42.9592 86.5398 42.9592C89.3894 42.9592 91.7363 41.9893 92.108 39.3556C92.2991 37.9963 92.1575 37.1043 92.0903 36.7716C91.4283 33.476 85.4495 32.4919 85.0071 30.6477Z" fill="black"/>
<path d="M107.085 26.5027H103.057V38.2761C103.057 38.4814 103.053 38.7115 103.018 38.885C102.94 39.2779 102.6 40.039 101.492 40.039C100.384 40.039 100.041 39.2779 99.9664 38.885C99.931 38.7151 99.9239 38.4814 99.9274 38.2761V26.5027H95.9027V37.9151C95.8956 38.2089 95.9239 38.8071 95.9381 38.9629C96.2177 41.9328 98.5646 42.8956 101.492 42.8956C104.416 42.8956 106.766 41.9328 107.042 38.9629C107.057 38.8071 107.089 38.2089 107.081 37.9151V26.5027H107.085Z" fill="black"/>
<path d="M134.72 33.4832V35.8053H136.352V38.1168C136.356 38.3186 136.349 38.5416 136.313 38.7221C136.242 39.1469 135.839 39.8761 134.689 39.8761C133.538 39.8761 133.135 39.1469 133.06 38.7221C133.028 38.5416 133.021 38.3186 133.025 38.1168V30.8389C133.025 30.5805 133.042 30.2938 133.088 30.085C133.177 29.692 133.517 28.931 134.674 28.931C135.892 28.931 136.193 29.7345 136.264 30.085C136.31 30.315 136.313 30.6938 136.313 30.6903V31.5823H140.327V31.0513C140.324 31.0513 140.342 30.5097 140.292 30.0035C139.998 27.0195 137.527 26.0708 134.706 26.0708C131.881 26.0708 129.474 27.0266 129.12 30.0035C129.088 30.269 129.053 30.7681 129.053 31.0513V37.7451C129.053 38.046 129.064 38.262 129.11 38.7929C129.375 41.692 131.885 42.7257 134.706 42.7257C137.527 42.7257 140.041 41.692 140.303 38.7929C140.352 38.2655 140.359 38.046 140.359 37.7451V33.4832H134.72Z" fill="black"/>
</g>
<defs>
<clipPath id="clip0">
<rect width="170" height="100" fill="white"/>
</clipPath>
</defs>
</svg>
